<svg xmlns="http://www.w3.org/2000/svg" viewBox="0 0 512 512">
  <rect width="512" height="512" rx="108" fill="#0f766e"/>
  <path fill="#ffffff" d="M132 136h248a28 28 0 0 1 28 28v184a28 28 0 0 1-28 28H132a28 28 0 0 1-28-28V164a28 28 0 0 1 28-28Zm16 64v112h216V200H148Zm24 32h64v48h-64v-48Zm88 0h80v20h-80v-20Zm0 32h80v20h-80v-20Z"/>
  <circle cx="372" cy="152" r="52" fill="#123f8c"/>
  <text x="372" y="170" text-anchor="middle" font-family="Arial, Helvetica, sans-serif" font-size="52" font-weight="700" fill="#ffffff">C</text>
</svg>
